<svg contentScriptType="text/ecmascript" zoomAndPan="magnify" xmlns:xlink="http://www.w3.org/1999/xlink" contentStyleType="text/css" id="prefix_id_Layer_1" style="enable-background:new 0 0 600 600;" version="1.1" width="57.409202575683594" xml:space="preserve" xmlns:sodipodi="http://sodipodi.sourceforge.net/DTD/sodipodi-0.dtd" xmlns:inkscape="http://www.inkscape.org/namespaces/inkscape" preserveAspectRatio="xMidYMid meet" xmlns:myscada="http://www.myscada.org" viewBox="0 0 57.409202575683594 57.40919494628906" inkscape:componentSize="0.0;0.0;1.0;1.0" inkscape:voditka="{&quot;voditkoHorValues&quot;:[],&quot;voditkoVerValues&quot;:[]}" height="57.40919494628906" xmlns="http://www.w3.org/2000/svg" inkscape:componentData="{&quot;attr&quot;:&quot;Comp&quot;,&quot;name&quot;:&quot;Component Name&quot;,&quot;desc&quot;:&quot;Component Description&quot;,&quot;author&quot;:&quot;mySCADA Team&quot;,&quot;uniqueID&quot;:&quot;9521ff3611&quot;,&quot;MasterID&quot;:&quot;475837577&quot;,&quot;list&quot;:[{&quot;variableName&quot;:&quot;combo&quot;,&quot;name&quot;:&quot;Icon&quot;,&quot;desc&quot;:&quot;Choose symbol&quot;,&quot;value&quot;:&quot;4;0=Arrow1,1=Arrow2,2=Arrow3,3=Cross,4=Text&quot;,&quot;valueSub&quot;:&quot;&quot;,&quot;type&quot;:7,&quot;hide&quot;:false,&quot;translate&quot;:false,&quot;translations&quot;:{}},{&quot;variableName&quot;:&quot;color&quot;,&quot;name&quot;:&quot;Icon color&quot;,&quot;desc&quot;:&quot;Choose color&quot;,&quot;value&quot;:&quot;#FF0000&quot;,&quot;valueSub&quot;:&quot;&quot;,&quot;type&quot;:4,&quot;hide&quot;:false,&quot;translate&quot;:false,&quot;translations&quot;:{}},{&quot;variableName&quot;:&quot;txt&quot;,&quot;name&quot;:&quot;Text&quot;,&quot;desc&quot;:&quot;Edit text&quot;,&quot;value&quot;:&quot;Off&quot;,&quot;valueSub&quot;:&quot;&quot;,&quot;type&quot;:1,&quot;hide&quot;:false,&quot;translate&quot;:false,&quot;translations&quot;:{}}]}" x="0px" y="0px">
<defs>
<linearGradient gradientTransform="rotate(90.0,0.5,0.5)" x1="0%" xmlns:xlink="http://www.w3.org/1999/xlink" y1="0%" x2="100%" gradientUnits="objectBoundingBox" y2="0%" xlink:type="simple" xlink:actuate="onLoad" id="prefix_id_lin0001" xlink:show="other" spreadMethod="pad">
<stop offset="0%" style="stop-color:#ffffff;stop-opacity:0.48;"/>
<stop offset="100%" style="stop-color:#ffffff;stop-opacity:0.0;"/>
</linearGradient>
<linearGradient gradientTransform="" x1="0%" xmlns:xlink="http://www.w3.org/1999/xlink" gradientUnits="objectBoundingBox" x2="100%" y1="0%" y2="0%" xlink:type="simple" xlink:actuate="onLoad" id="prefix_id_lin0005" xlink:show="other" spreadMethod="pad">
<stop style="stop-color:#333333;stop-opacity:0.48;" offset="0%"/>
<stop style="stop-color:#000000;stop-opacity:0.0;" offset="100%"/>
</linearGradient>
</defs>
<rect x="0" width="57.409202575683594" id="prefix_id_pozadiNoSeL" height="57.40919494628906" y="0" style="fill:#ffffff;stoke:#ffffff;"/>
<g inkscape:groupmode="layer" id="layer0" style="display:inline;" inkscape:layerlabel="Background">
<style type="text/css" xml:space="preserve">
.st0{fill:#414042;}.st1{fill:url(#XMLID_11_);}.st2{fill:url(#XMLID_14_);}.st3{fill:url(#XMLID_16_);}.st4{fill:url(#XMLID_17_);}.st5{fill:#FFFFFF;}.st6{fill:#76FF45;}.st7{fill:#D1D3D4;}</style>
<linearGradient x1="300.4087" xmlns:xlink="http://www.w3.org/1999/xlink" x2="300.4087" y1="88" gradientUnits="userSpaceOnUse" y2="183.6032" xlink:type="simple" xlink:actuate="onLoad" id="prefix_id_XMLID_11_" xlink:show="other">
<stop style="stop-color:#000000;stop-opacity:0.8" offset="0"/>
<stop style="stop-color:#000000;stop-opacity:0" offset="1"/>
</linearGradient>
<linearGradient gradientTransform="matrix(-1 0 0 -1 306 714.0635)" x1="5.5913" xmlns:xlink="http://www.w3.org/1999/xlink" x2="5.5913" y1="202.0635" gradientUnits="userSpaceOnUse" y2="297.7083" xlink:type="simple" xlink:actuate="onLoad" id="prefix_id_XMLID_14_" xlink:show="other">
<stop style="stop-color:#000000;stop-opacity:0.8" offset="0"/>
<stop style="stop-color:#000000;stop-opacity:0" offset="1"/>
</linearGradient>
<linearGradient gradientTransform="matrix(-4.489700e-11 -1 1 -4.489700e-11 -341.5873 372.4762)" x1="72.4762" xmlns:xlink="http://www.w3.org/1999/xlink" x2="72.4762" y1="429.996" gradientUnits="userSpaceOnUse" y2="525.6151" xlink:type="simple" xlink:actuate="onLoad" id="prefix_id_XMLID_16_" xlink:show="other">
<stop style="stop-color:#000000;stop-opacity:0.8" offset="0"/>
<stop style="stop-color:#000000;stop-opacity:0" offset="1"/>
</linearGradient>
<linearGradient gradientTransform="matrix(4.489700e-11 1 -1 4.489700e-11 925.9925 13.5238)" x1="286.4762" xmlns:xlink="http://www.w3.org/1999/xlink" x2="286.4762" y1="413.5838" gradientUnits="userSpaceOnUse" y2="509.3119" xlink:type="simple" xlink:actuate="onLoad" id="prefix_id_XMLID_17_" xlink:show="other">
<stop style="stop-color:#000000;stop-opacity:0.8" offset="0"/>
<stop style="stop-color:#000000;stop-opacity:0" offset="1"/>
</linearGradient>
<path d="M145.86538696289062 33.737178802490234L145.86538696289062 82.64637756347656C145.86538696289062 84.30323028564453 147.20852661132812 85.64637756347656 148.86538696289062 85.64637756347656L197.7745819091797 85.64637756347656C199.4314422607422 85.64637756347656 200.7745819091797 84.30323028564453 200.7745819091797 82.64637756347656L200.7745819091797 33.737178802490234C200.7745819091797 32.080326080322266 199.4314422607422 30.737178802490234 197.7745819091797 30.737178802490234L148.86538696289062 30.737178802490234C147.20852661132812 30.737178802490234 145.86538696289062 32.080326080322266 145.86538696289062 33.737178802490234Z" id="prefix_id_path0003" style="stroke-linejoin:miter;stroke-dasharray:none;stroke-width:1;fill:#333333;stroke:none;stroke-linecap:butt;" transform="matrix(1 0 0 1 -144.62757873535156 -29.499374389648438)"/>
</g>
<g inkscape:groupmode="layer" id="layer1" inkscape:componentalign="cc" style="opacity:1.0;display:inline;" inkscape:layerlabel="5">
<text x="169" y="230" transform="matrix(0.1296650916337967 0 0 0.1296650916337967 6.856804566332073 7.362497208841546)" inkscape:vypln="color,100" inkscape:textik="txt" style="visibility:visible;font-weight:normal;text-anchor:middle;font-size:150pt;font-family:&apos;DIN Condensed&apos;;font-style:normal;fill:#FF0000;stroke:none;" id="prefix_id_text0001" inkscape:opac="combo;4;4">
Off</text>
</g>
<g inkscape:groupmode="layer" id="layer2" inkscape:componentalign="cc" style="opacity:1.0;display:inline;" inkscape:layerlabel="0">
<path inkscape:vypln="color,100" d="M56.599998474121094 192.50001525878906L56.599998474121094 247.50001525878906L237.79998779296875 247.50001525878906L237.79998779296875 192.50001525878906ZM237.79998779296875 72.40000915527344L198.89999389648438 111.30000305175781L307.6999816894531 220.09999084472656L198.89999389648438 328.79998779296875L237.79998779296875 367.70001220703125L384.95001220703125 220.8000030517578L237.79998779296875 72.40000915527344Z" id="prefix_id_path0006" style="visibility:hidden;stroke-linejoin:miter;stroke-dasharray:none;stroke-width:1;fill:#FF0000;stroke:none;stroke-linecap:butt;" inkscape:opac="combo;0;0" transform="matrix(0.1296650916337967 0 0 0.1296650916337967 0.0655948973789009 0.15959998361154248)">
#00ff66</path>
</g>
<g inkscape:groupmode="layer" id="layer3" inkscape:componentalign="cc" style="opacity:1.0;display:inline;" inkscape:layerlabel="3">
<path inkscape:vypln="color,100" d="M94.20000457763672 55.30000305175781L220.79998779296875 181.90000915527344L347.3999938964844 55.30000305175781L386.29998779296875 94.19999694824219L259.6999816894531 220.8000030517578L386.29998779296875 347.4000244140625L347.3999938964844 386.29998779296875L220.79998779296875 259.70001220703125L94.20000457763672 386.29998779296875L55.29999542236328 347.4000244140625L181.89999389648438 220.8000030517578L55.29999542236328 94.19999694824219L94.20000457763672 55.30000305175781" id="prefix_id_path0005" style="visibility:hidden;stroke-linejoin:miter;stroke-dasharray:none;stroke-width:1;fill:#FF0000;stroke:none;stroke-linecap:butt;" inkscape:opac="combo;3;3" transform="matrix(0.1296650916337967 0 0 0.1296650916337967 0.06235406150096878 0.062351164886194965)"/>
</g>
<g inkscape:groupmode="layer" id="layer4" inkscape:componentalign="cc" style="opacity:1.0;display:inline;" inkscape:layerlabel="2">
<path inkscape:vypln="color,100" d="M94.19998931884766 55.30000305175781L55.29999542236328 94.19999694824219L274.6999816894531 313.5999755859375L313.6999816894531 274.79998779296875L94.19998931884766 55.30000305175781ZM337.8999938964844 184.09999084472656L337.8999938964844 337.89996337890625L184.10000610351562 337.89996337890625L184.10000610351562 392.89996337890625L392.8999938964844 392.89996337890625L392.8999938964844 184.09999084472656Z" id="prefix_id_path0001" style="visibility:hidden;stroke-linejoin:miter;stroke-dasharray:none;stroke-width:1;fill:#FF0000;stroke:none;stroke-linecap:butt;" inkscape:opac="combo;2;2" transform="matrix(0.1296650916337967 0 0 0.1296650916337967 -0.3655411365970167 -0.3655420546795085)"/>
</g>
<g inkscape:groupmode="layer" id="layer5" inkscape:componentalign="cc" style="opacity:1.0;display:inline;" inkscape:layerlabel="1">
<path inkscape:vypln="color,100" id="prefix_id_path0007" d="M94.19998931884766 55.30000305175781L55.29999542236328 94.19999694824219L274.6999816894531 313.5999755859375L313.6999816894531 274.79998779296875L94.19998931884766 55.30000305175781ZM337.8999938964844 184.09999084472656L337.8999938964844 337.89996337890625L184.10000610351562 337.89996337890625L184.10000610351562 392.89996337890625L392.8999938964844 392.89996337890625L392.8999938964844 184.09999084472656Z" style="visibility:hidden;stroke-linejoin:miter;stroke-dasharray:none;stroke-width:1;fill:#FF0000;stroke:none;stroke-linecap:butt;" inkscape:opac="combo;1;1" transform="matrix(0.1296650916337967 0 0 -0.1296650767326355 -0.3655411365970167 57.75034630199934)"/>
</g>
<g inkscape:groupmode="layer" id="layer6" style="display:inline;" inkscape:layerlabel="stiny">
<path d="M212.62338256835938 30.737178802490234C210.96652221679688 30.737178802490234 209.62338256835938 32.080326080322266 209.62338256835938 33.737178802490234L209.62338256835938 82.64637756347656C209.62338256835938 84.30323028564453 210.96652221679688 85.64637756347656 212.62338256835938 85.64637756347656L220.72727966308594 85.64637756347656L220.72727966308594 30.737178802490234Z" id="prefix_id_path0004" style="stroke-linejoin:miter;stroke-dasharray:none;stroke-width:1;fill:url(#prefix_id_lin0005);stroke:none;stroke-linecap:butt;" transform="matrix(1 0 0 1 -208.38556838617092 -29.499374389648438)"/>
<path d="M212.62338256835938 30.737178802490234C210.96652221679688 30.737178802490234 209.62338256835938 32.080326080322266 209.62338256835938 33.737178802490234L209.62338256835938 82.64637756347656C209.62338256835938 84.30323028564453 210.96652221679688 85.64637756347656 212.62338256835938 85.64637756347656L220.72727966308594 85.64637756347656L220.72727966308594 30.737178802490234Z" id="prefix_id_path0008" style="stroke-linejoin:miter;stroke-dasharray:none;stroke-width:1;fill:url(#prefix_id_lin0005);stroke:none;stroke-linecap:butt;" transform="matrix(0 1 -1 0 86.88419937505955 -208.38558959960938)"/>
<path d="M212.62338256835938 30.737178802490234C210.96652221679688 30.737178802490234 209.62338256835938 32.080326080322266 209.62338256835938 33.737178802490234L209.62338256835938 82.64637756347656C209.62338256835938 84.30323028564453 210.96652221679688 85.64637756347656 212.62338256835938 85.64637756347656L220.72727966308594 85.64637756347656L220.72727966308594 30.737178802490234Z" id="prefix_id_path0009" style="stroke-linejoin:miter;stroke-dasharray:none;stroke-width:1;fill:url(#prefix_id_lin0005);stroke:none;stroke-linecap:butt;" transform="matrix(-1 0 0 -1 265.7703916968369 86.88418579101562)"/>
<path d="M212.62338256835938 30.737178802490234C210.96652221679688 30.737178802490234 209.62338256835938 32.080326080322266 209.62338256835938 33.737178802490234L209.62338256835938 82.64637756347656C209.62338256835938 84.30323028564453 210.96652221679688 85.64637756347656 212.62338256835938 85.64637756347656L220.72727966308594 85.64637756347656L220.72727966308594 30.737178802490234Z" id="prefix_id_path0010" style="stroke-linejoin:miter;stroke-dasharray:none;stroke-width:1;fill:url(#prefix_id_lin0005);stroke:none;stroke-linecap:butt;" transform="matrix(0 -1 1 0 -29.499358898255885 265.7703857421875)"/>
</g>
<g inkscape:groupmode="layer" id="layer7" style="display:inline;" inkscape:layerlabel="shine">
<path d="M489.71240234375 88.06578826904297C504.8503112792969 88.82572937011719 513.21728515625 99.73918151855469 512.1259155273438 113.92668151855469L512.4000244140625 151.60000610351562L87.73091125488281 314.8179931640625L87.60350799560547 113.2660903930664C86.80569687888908 91.9911190959374 105.59341430664062 88.02540588378906 110.11434173583984 88.02540588378906Z" id="prefix_id_XMLID_1_" style="fill:url(#prefix_id_lin0001);fill-opacity:1;" class="st6" transform="matrix(0.1296650916337967 0 0 0.1296650916337967 -10.13782477960354 -10.176016807556152)"/>
</g>
<g inkscape:groupmode="layer" id="layer8" style="display:inline;" inkscape:layerlabel="frame">
<path d="M92.1199722290039 10.451302528381348L92.1199722290039 59.360496520996094C92.1199722290039 61.01735305786133 93.46311950683594 62.360496520996094 95.1199722290039 62.360496520996094L144.0291748046875 62.360496520996094C145.68601989746094 62.360496520996094 147.0291748046875 61.01735305786133 147.0291748046875 59.360496520996094L147.0291748046875 10.451302528381348C147.0291748046875 8.794447898864746 145.68601989746094 7.451302528381348 144.0291748046875 7.451302528381348L95.1199722290039 7.451302528381348C93.46311950683594 7.451302528381348 92.1199722290039 8.794447898864746 92.1199722290039 10.451302528381348Z" id="prefix_id_path0002" style="stroke-linejoin:miter;stroke-dasharray:none;stroke-width:1.5;fill:none;stroke:#cccccc;stroke-linecap:butt;" transform="matrix(1 0 0 1 -90.88216567620998 -6.213497161865234)"/>
</g>
<g inkscape:groupmode="layer" myscada:layerActiveArea="YES" id="layer9" inkscape:layerlabel="ActiveArea"/>
</svg>
